<svg id="Layer_1" data-name="Layer 1" xmlns="http://www.w3.org/2000/svg" viewBox="0 0 793 123.49"><defs><style>.cls-1{fill:#fdd507;}.cls-2{fill:#f7f8f9;}</style></defs><title>NkululekoIio_logo</title><path class="cls-1" d="M672.9,106.12a16.07,16.07,0,0,1,16,16,15.88,15.88,0,0,1-16,15.73,15.69,15.69,0,0,1-15.73-15.73A15.89,15.89,0,0,1,672.9,106.12Z" transform="translate(-19 -14.33)"/><path class="cls-2" d="M91.83,84.06v41.28c0,.22,0,.45,0,.66a9.79,9.79,0,0,1-4.28,7.62A6.59,6.59,0,0,1,87,134c-.16.09-.35.18-.52.26l-.5.22-.55.19a3,3,0,0,1-.37.11l-.57.14a9.61,9.61,0,0,1-1.79.18,2.53,2.53,0,0,1-.48,0l-.55,0a.18.18,0,0,1-.11,0,4.68,4.68,0,0,1-.67-.12,5.19,5.19,0,0,1-.65-.17,8.27,8.27,0,0,1-1.79-.75,6.12,6.12,0,0,1-.69-.43,2.51,2.51,0,0,1-.46-.32c-.29-.22-.58-.46-.86-.72L76,132a.82.82,0,0,1-.17-.2c-.15-.16-.29-.35-.43-.53,0,0-.05,0-.05-.05-.15-.21-.3-.43-.44-.66a4.42,4.42,0,0,1-.34-.6,8.55,8.55,0,0,1-.93-2.77,2.43,2.43,0,0,1-.08-.54,8.11,8.11,0,0,1,0-.86V84.06A17.77,17.77,0,0,0,58.84,66.77L58,66.63c-.28,0-.55-.08-.84-.11s-.45,0-.66-.06H56.3a13.22,13.22,0,0,0-1.78,0h-.23c-.21,0-.44,0-.66.06s-.57.06-.84.11l-.81.14A17.79,17.79,0,0,0,37.33,84.06V125.8a8.12,8.12,0,0,1,0,.86,3.2,3.2,0,0,1-.08.54,8.55,8.55,0,0,1-.93,2.77,4.42,4.42,0,0,1-.34.6c-.14.23-.29.45-.44.66,0,0,0,0,0,.05-.14.18-.28.37-.43.53a6.47,6.47,0,0,1-.51.56,5.56,5.56,0,0,1-.44.39,7.66,7.66,0,0,1-1.1.82c-.19.13-.37.24-.57.35a9.3,9.3,0,0,1-1.84.77l-.26.07a1.4,1.4,0,0,1-.28.06l-.07,0h-.07a5,5,0,0,1-.58.11l-.11,0-.55,0a2.48,2.48,0,0,1-.47,0,9.72,9.72,0,0,1-1.8-.18,4.94,4.94,0,0,1-.64-.15l-.29-.1-.55-.19-.51-.22-.52-.26a6.59,6.59,0,0,1-.57-.34l-.53-.37A9.83,9.83,0,0,1,19,126c0-.21,0-.44,0-.66V84.06A36.44,36.44,0,0,1,36.72,53s0,0,0,.06a.13.13,0,0,0,.19,0,35.36,35.36,0,0,1,12.17-4.75c.81-.15,1.62-.28,2.45-.37.23,0,.46,0,.69-.06a10.38,10.38,0,0,1,1.11-.09c.7,0,1.42-.06,2.14-.06s1.3,0,2,.06a10.35,10.35,0,0,1,1.12.09c.23,0,.46,0,.69.06l1.24.17c.4.06.81.12,1.21.2A35.38,35.38,0,0,1,73.9,53.06a.12.12,0,0,0,.18,0s0-.05,0-.06A36.44,36.44,0,0,1,91.83,84.06Z" transform="translate(-19 -14.33)"/><path class="cls-2" d="M103.06,127v-103a9.57,9.57,0,0,1,9.61-9.6,9.73,9.73,0,0,1,9.78,9.6V84.37l35.8-35.81a9.81,9.81,0,0,1,13.63,0,9.49,9.49,0,0,1,0,13.62l-26.2,26.2,26.89,32.32a9.68,9.68,0,0,1-1.39,13.62,9.42,9.42,0,0,1-13.45-1.22L132.05,102l-9.6,9.6V127a9.73,9.73,0,0,1-9.78,9.61A9.58,9.58,0,0,1,103.06,127Z" transform="translate(-19 -14.33)"/><path class="cls-2" d="M218.37,136.59A36.53,36.53,0,0,1,182,100.26V58.52a9.44,9.44,0,0,1,9.26-9.26,9.32,9.32,0,0,1,9.26,9.26v41.74a17.67,17.67,0,0,0,17.81,17.82,18.12,18.12,0,0,0,18.34-17.82V58.52a9.17,9.17,0,0,1,9.08-9.26c4.89,0,9.44,4.37,9.44,9.26v41.74C255.23,120.17,238.46,136.59,218.37,136.59Z" transform="translate(-19 -14.33)"/><path class="cls-2" d="M273.27,14.33a9.72,9.72,0,0,1,9.78,9.6V127a9.69,9.69,0,0,1-19.38,0v-103A9.68,9.68,0,0,1,273.27,14.33Z" transform="translate(-19 -14.33)"/><path class="cls-2" d="M328.25,136.59a36.53,36.53,0,0,1-36.33-36.33V58.52a9.44,9.44,0,0,1,9.26-9.26,9.31,9.31,0,0,1,9.25,9.26v41.74a17.67,17.67,0,0,0,17.82,17.82,18.12,18.12,0,0,0,18.34-17.82V58.52a9.17,9.17,0,0,1,9.08-9.26c4.89,0,9.43,4.37,9.43,9.26v41.74C365.1,120.17,348.33,136.59,328.25,136.59Z" transform="translate(-19 -14.33)"/><path class="cls-2" d="M383.15,14.33a9.73,9.73,0,0,1,9.78,9.6V127a9.7,9.7,0,0,1-19.39,0v-103A9.69,9.69,0,0,1,383.15,14.33Z" transform="translate(-19 -14.33)"/><path class="cls-2" d="M400.69,92.92c.17-23.75,18.69-43.66,42.61-43.66,22.71,0,40.7,16.94,42.1,40.52v.87a4.75,4.75,0,0,1-.18,1.58c-.52,4.19-4.19,7-9.08,7H420.6c.87,4,2.79,8.56,5.94,11.53,3.67,4.19,10.65,7.34,16.76,7.86,6.29.52,13.8-1,18.17-4.37,3.67-3.84,10.83-3.32,13.1-.52,2.27,2.44,4,7.69,0,11.35-8.56,7.86-18.86,11.53-31.27,11.53C419.38,136.42,400.86,116.68,400.69,92.92Zm19-8.55h49.43c-1.74-7-10.65-17.3-25.85-18.52C428.46,66.55,421.12,77.21,419.72,84.37Z" transform="translate(-19 -14.33)"/><path class="cls-2" d="M491.7,127v-103a9.57,9.57,0,0,1,9.61-9.6,9.73,9.73,0,0,1,9.78,9.6V84.37L546.9,48.56a9.8,9.8,0,0,1,13.62,0,9.49,9.49,0,0,1,0,13.62l-26.2,26.2,26.9,32.32a9.68,9.68,0,0,1-1.4,13.62,9.42,9.42,0,0,1-13.45-1.22L520.7,102l-9.61,9.6V127a9.73,9.73,0,0,1-9.78,9.61A9.58,9.58,0,0,1,491.7,127Z" transform="translate(-19 -14.33)"/><path class="cls-2" d="M577.85,123.84A43.6,43.6,0,0,1,565.79,93.1c0-11.88,4.55-22.18,12.06-30.57,7.85-8.2,18-13.27,30-13.27a38.64,38.64,0,0,1,29.16,13.27A43.61,43.61,0,0,1,649.28,93.1c0,12.23-4.36,23.05-12.23,30.74a38.61,38.61,0,0,1-29.16,13.27C595.83,137.11,585.7,132.05,577.85,123.84Zm7-30.74a28.22,28.22,0,0,0,6.29,18.51,23.62,23.62,0,0,0,16.77,6.47A22.82,22.82,0,0,0,624,111.61a26.82,26.82,0,0,0,6.82-18.51A26.24,26.24,0,0,0,624,74.94c-4.36-3.85-10-6.64-16.06-6.64a25.37,25.37,0,0,0-16.77,6.64A27.59,27.59,0,0,0,584.83,93.1Z" transform="translate(-19 -14.33)"/><path class="cls-2" d="M717.82,27.43a9.42,9.42,0,0,1-9.43,9.6,9.54,9.54,0,0,1-9.43-9.6V23.76a9.39,9.39,0,0,1,9.43-9.43,9.28,9.28,0,0,1,9.43,9.43Zm0,31.61v68.12a9.28,9.28,0,0,1-9.43,9.43,9.39,9.39,0,0,1-9.43-9.43V59a9.33,9.33,0,0,1,9.43-9.61A9.22,9.22,0,0,1,717.82,59Z" transform="translate(-19 -14.33)"/><path class="cls-2" d="M740.56,123.84a43.59,43.59,0,0,1-12-30.74c0-11.88,4.54-22.18,12-30.57,7.86-8.2,18-13.27,30.05-13.27a38.64,38.64,0,0,1,29.16,13.27A43.66,43.66,0,0,1,812,93.1c0,12.23-4.37,23.05-12.23,30.74a38.61,38.61,0,0,1-29.16,13.27C758.55,137.11,748.42,132.05,740.56,123.84Zm7-30.74a28.22,28.22,0,0,0,6.29,18.51,23.62,23.62,0,0,0,16.77,6.47,22.82,22.82,0,0,0,16.06-6.47,26.82,26.82,0,0,0,6.82-18.51,26.24,26.24,0,0,0-6.82-18.16c-4.36-3.85-9.95-6.64-16.06-6.64a25.37,25.37,0,0,0-16.77,6.64A27.59,27.59,0,0,0,747.55,93.1Z" transform="translate(-19 -14.33)"/></svg>